PathFileType	4	(x/y/z)	S05_PSF_T06
DataRate	CameraRate	NumFrames	NumMarkers	Units	OrigDataRate	OrigDataStartFrame	OrigNumFrames
240	240	5	50	mm	240	54	430
Frame#	Time	Sternum			R.Acromium			L.Acromium			Top.Head			R.ASIS			L.ASIS			R.PSIS			L.PSIS			R.Great.Tro			L.Great.Tro			R.Iliac.Crest			L.Iliac.Crest			V.Sacral			R.Thigh.Upper.Post			R.Thigh.Lower.Ant			R.Thigh.Lower.Post			R.Thigh.Upper.Ant			R.Knee.Lat			R.Knee.Med			R.Shank.Upper.Post			R.Shank.Lower.Ant			R.Shank.Lower.Post			R.Shank.Upper.Ant			R.Ankle.Lat			R.Ankle.Med			R.Heel.Upper			R.Heel.Med			R.Heel.Lat			R.Toe.Lat			R.Toe.Med			R.Toe.Tip			L.Thigh.Upper.Post			L.Thigh.Lower.Ant			L.Thigh.Lower.Post			L.Thigh.Upper.Ant			L.Knee.Lat			L.Shank.Upper.Post			L.Shank.Lower.Ant			L.Shank.Lower.Post			L.Shank.Upper.Ant			L.Ankle.Lat			L.Ankle.Med			L.Heel.Upper			L.Heel.Med			L.Heel.Lat			L.Toe.Lat			L.Toe.Med			L.Toe.Tip			Cervical.Spine			Back			
		X1	Y1	Z1	X2	Y2	Z2	X3	Y3	Z3	X4	Y4	Z4	X5	Y5	Z5	X6	Y6	Z6	X7	Y7	Z7	X8	Y8	Z8	X9	Y9	Z9	X10	Y10	Z10	X11	Y11	Z11	X12	Y12	Z12	X13	Y13	Z13	X14	Y14	Z14	X15	Y15	Z15	X16	Y16	Z16	X17	Y17	Z17	X18	Y18	Z18	X19	Y19	Z19	X20	Y20	Z20	X21	Y21	Z21	X22	Y22	Z22	X23	Y23	Z23	X24	Y24	Z24	X25	Y25	Z25	X26	Y26	Z26	X27	Y27	Z27	X28	Y28	Z28	X29	Y29	Z29	X30	Y30	Z30	X31	Y31	Z31	X32	Y32	Z32	X33	Y33	Z33	X34	Y34	Z34	X35	Y35	Z35	X36	Y36	Z36	X37	Y37	Z37	X38	Y38	Z38	X39	Y39	Z39	X40	Y40	Z40	X41	Y41	Z41	X42	Y42	Z42	X43	Y43	Z43	X44	Y44	Z44	X45	Y45	Z45	X46	Y46	Z46	X47	Y47	Z47	X48	Y48	Z48	X49	Y49	Z49	X50	Y50	Z50	

54	0.22083	-1140.3	1250.7	290.61	-1234.9	1515.5	434.76	-1259.7	1519.2	111.37	-1241.6	1818.2	246.21	-1216.5	992.05	433.63	NaN	NaN	NaN	NaN	NaN	NaN	NaN	NaN	NaN	-1309.9	911.14	487.4	-1269.8	926.69	100.88	-1305.6	1082.9	464.31	-1286.8	1079.3	128.16	-1420.8	983.46	296.51	-1268.8	689.71	494.9	-1209.5	612.01	458.77	-1278.7	601.27	480.09	-1207.1	697.92	471.87	-1300.2	506.25	468.78	NaN	NaN	NaN	-1522.3	408.14	440.95	-1536.8	319.59	439.9	-1579	361.04	419.76	-1472.5	363.8	458.7	-1631.7	270.8	417.36	-1587.6	269.72	335.38	-1693.1	296.95	344.37	-1706.7	271.55	313.72	-1719.3	276.61	377.09	-1655.9	128.16	443.84	-1609	101.26	333.63	NaN	NaN	NaN	-1212.6	693.62	111.08	-1116.6	641.28	136.1	-1182.2	604.82	129.21	-1140.5	727.68	118.37	-1146.7	521.48	137.13	-1189.3	315.86	139.52	-1116	264.77	145.69	-1184.9	244.48	158.56	-1125.2	334.22	131.95	-1143.5	109.28	170.92	-1109.2	130.81	255.13	-1195.5	65.256	228.92	-1182.8	42.064	260.53	-1194.6	37.404	200.64	-1014.4	38.736	139.6	-987.97	58.785	256.06	-927.29	70.458	198.85	-1295.5	1556.3	278.53	-1410.4	1281.8	295.82
55	0.225	-1134.9	1251.3	290.2	-1229.2	1516.3	434.14	-1253.9	1519.9	110.76	-1236	1818.9	245.45	-1210.9	992.79	432.95	NaN	NaN	NaN	NaN	NaN	NaN	NaN	NaN	NaN	-1303.7	911.46	486.86	-1264.8	927.42	100.33	-1300.4	1083.4	463.8	-1281.5	1080	127.63	-1415.6	983.94	296.01	-1259.6	690.43	494.7	-1199.5	613.4	458.07	-1268.3	601.7	479.99	-1197.1	699.72	470.82	-1288.5	506.65	468.5	NaN	NaN	NaN	-1511.4	410.31	440.56	-1526.4	321.83	439.39	-1568.6	363.84	419.45	-1462	365.67	458.24	-1622.1	274.01	416.74	-1577.6	272.55	334.75	-1683.2	300.27	343.59	-1696.9	274.83	313.07	-1709.5	280.22	376.43	-1646.7	131.7	443.62	-1599.8	104.08	333.65	NaN	NaN	NaN	-1208.8	694.06	110.64	-1113	641.25	135.64	-1178.7	605.11	128.84	-1136.5	727.75	117.82	-1143.7	521.52	136.82	-1187.7	316.17	139.52	-1114.7	264.65	145.6	-1183.8	244.81	158.62	-1123.5	334.12	131.81	-1143.1	109.4	171.05	-1108.8	130.79	255.26	-1195.5	65.323	228.95	-1182.8	42.105	260.56	-1194.6	37.519	200.67	-1014.4	38.627	139.61	-987.84	58.425	256.19	-927.09	69.892	198.99	-1289.9	1557	277.87	-1404.9	1282.6	295.06
56	0.22917	-1129.6	1251.9	289.82	-1223.6	1517	433.54	-1248.1	1520.6	110.18	-1230.4	1819.6	244.73	-1205.4	993.56	432.28	NaN	NaN	NaN	NaN	NaN	NaN	NaN	NaN	NaN	-1297.6	911.84	486.35	-1260	928.14	99.793	-1295.2	1084	463.3	-1276.2	1080.8	127.1	-1410.4	984.44	295.53	-1250.4	691.24	494.5	-1189.7	614.91	457.34	-1258	602.24	479.87	-1187.3	701.6	469.81	-1276.9	507.18	468.18	NaN	NaN	NaN	-1500.3	412.37	440.12	-1515.9	323.96	438.86	-1558	366.46	419.1	-1451.4	367.51	457.74	-1612.2	276.98	416.11	-1567.4	275.22	334.09	-1673.2	303.24	342.83	-1687	277.74	312.45	-1699.5	283.42	375.79	-1637.1	134.99	443.39	-1590.2	106.75	333.62	NaN	NaN	NaN	-1205	694.48	110.22	-1109.5	641.2	135.22	-1175.3	605.39	128.5	-1132.5	727.81	117.32	-1140.8	521.55	136.53	-1186.2	316.48	139.57	-1113.4	264.53	145.51	-1182.7	245.14	158.72	-1121.9	334.02	131.68	-1142.7	109.52	171.19	-1108.4	130.77	255.39	-1195.4	65.391	228.98	-1182.7	42.148	260.6	-1194.5	37.64	200.7	-1014.3	38.528	139.63	-987.72	58.077	256.31	-926.91	69.356	199.11	-1284.4	1557.7	277.23	-1399.6	1283.4	294.29
57	0.23333	-1124.3	1252.4	289.46	-1218	1517.7	432.98	-1242.3	1521.3	109.62	-1224.8	1820.3	244.04	-1199.9	994.36	431.61	NaN	NaN	NaN	NaN	NaN	NaN	NaN	NaN	NaN	-1291.5	912.28	485.86	-1255.1	928.84	99.28	-1290.1	1084.6	462.8	-1271	1081.5	126.59	-1405.3	984.96	295.06	-1241.3	692.12	494.29	-1179.9	616.54	456.58	-1247.7	602.89	479.71	-1177.7	703.58	468.85	-1265.3	507.83	467.82	NaN	NaN	NaN	-1489.3	414.32	439.63	-1505.3	325.98	438.32	-1547.4	368.88	418.71	-1440.7	369.3	457.21	-1602.2	279.7	415.48	-1557.1	277.71	333.4	-1663	305.85	342.09	-1676.9	280.26	311.85	-1689.4	286.22	375.18	-1627	138	443.14	-1580.1	109.25	333.53	NaN	NaN	NaN	-1201.2	694.89	109.84	-1106	641.14	134.83	-1171.9	605.66	128.18	-1128.6	727.86	116.84	-1137.9	521.57	136.28	-1184.7	316.79	139.64	-1112.2	264.42	145.43	-1181.6	245.47	158.84	-1120.3	333.91	131.56	-1142.4	109.64	171.32	-1108	130.76	255.52	-1195.3	65.462	229.02	-1182.7	42.194	260.64	-1194.4	37.769	200.73	-1014.2	38.438	139.65	-987.61	57.741	256.43	-926.73	68.847	199.23	-1278.8	1558.5	276.61	-1394.2	1284.2	293.51
58	0.2375	-1119.1	1253	289.12	-1212.5	1518.4	432.45	-1236.5	1521.9	109.08	-1219.3	1821	243.38	-1194.4	995.19	430.96	NaN	NaN	NaN	NaN	NaN	NaN	NaN	NaN	NaN	-1285.5	912.77	485.38	-1250.3	929.53	98.787	-1284.9	1085.2	462.31	-1265.8	1082.2	126.08	-1400.1	985.51	294.61	-1232.1	693.09	494.07	-1170.2	618.29	455.8	-1237.5	603.67	479.51	-1168.3	705.63	467.94	-1253.9	508.59	467.44	NaN	NaN	NaN	-1478.2	416.14	439.08	-1494.6	327.87	437.77	-1536.7	371.09	418.28	-1430	371.02	456.66	-1591.9	282.14	414.84	-1546.6	279.99	332.68	-1652.7	308.1	341.38	-1666.6	282.39	311.27	-1679	288.6	374.6	-1616.5	140.72	442.87	-1569.6	111.55	333.39	NaN	NaN	NaN	-1197.5	695.29	109.47	-1102.7	641.07	134.48	-1168.6	605.92	127.88	-1124.8	727.9	116.38	-1135.2	521.59	136.04	-1183.3	317.09	139.74	-1111.1	264.31	145.36	-1180.5	245.78	158.98	-1118.9	333.82	131.45	-1142	109.77	171.45	-1107.6	130.75	255.65	-1195.3	65.537	229.05	-1182.6	42.243	260.68	-1194.4	37.903	200.75	-1014.2	38.354	139.67	-987.5	57.417	256.54	-926.55	68.363	199.33	-1273.2	1559.2	276.02	-1388.9	1285.1	292.73
